<?xml version="1.0"?><svg width="1052.3622" height="744.09448" xmlns="http://www.w3.org/2000/svg" xmlns:xlink="http://www.w3.org/1999/xlink">
 <defs>
<g id="new-path">
  <pattern patternTransform="translate(-84.137687,510.39526)" id="pattern5523" xlink:href="#pattern5504"/>
  <pattern patternTransform="matrix(0.88006212,0,0,0.88006212,-58.848069,577.67804)" id="pattern5519" xlink:href="#pattern5504"/>
  <pattern patternTransform="matrix(0.88006212,0,0,0.88006212,-58.848069,577.67804)" id="pattern5517" xlink:href="#pattern5504"/>
  <pattern patternTransform="matrix(0.88006212,0,0,0.88006212,-58.848069,577.67804)" id="pattern5515" xlink:href="#pattern5504"/>
  <pattern patternTransform="matrix(0.88006212,0,0,0.88006212,-58.848069,577.67804)" id="pattern5513" xlink:href="#pattern5504"/>
  <pattern patternTransform="matrix(0.88006212,0,0,0.88006212,-58.848069,577.67804)" id="pattern5511" xlink:href="#pattern5504"/>
  <pattern patternTransform="translate(0.06721909,0.06717561)" id="pattern5507" xlink:href="#pattern5490"/>
  <pattern patternTransform="translate(-79.949423,517.53249)" id="pattern5490" xlink:href="#pattern5478"/>
  <pattern patternTransform="translate(-212.76306,474.817)" id="pattern5322" xlink:href="#pattern5310"/>
  <pattern patternTransform="matrix(0.8936531,0,0,0.81566101,-53.447338,517.4271)" id="pattern5276" xlink:href="#pattern5263"/>
  <pattern patternTransform="matrix(0.8936531,0,0,0.81566101,-50.365307,517.41929)" id="pattern5263" xlink:href="#pattern5254"/>
  <pattern patternTransform="matrix(0.69232574,0,0,0.69244029,3.5424804e-7,-1.9023438e-5)" id="pattern5254" xlink:href="#pattern5244"/>
  <pattern patternTransform="matrix(0.73209023,0,0,0.71495365,-6.4575195e-7,1.7539062e-5)" id="pattern5247" xlink:href="#pattern5233"/>
  <pattern id="pattern5233" patternTransform="matrix(0.73209023,0,0,0.71495365,-50.326245,517.53554)" height="3.635903" width="3.551382" patternUnits="userSpaceOnUse">
   <path fill="#800000" d="m2.198483,0.29226a0.344911,0.577409 0 1 1 -0.68982,0.905394a0.344911,0.577409 0 1 1 0.68982,-0.905394z" id="path5214"/>
   <path fill="#800000" id="path5216" d="m1.259885,2.078425a0.445327,0.676466 0 1 1 -0.890653,-0.611679a0.445327,0.676466 0 1 1 0.890653,0.611679z"/>
   <path fill="#800000" d="m2.096143,3.11829a0.120933,0.239701 0 1 1 -0.241866,-1.23446a0.120933,0.239701 0 1 1 0.241866,1.23446z" id="path5218"/>
   <path fill="#800000" d="m0.905374,0.599966a0.439712,0.622023 0 1 1 -0.879422,0.044941a0.439712,0.622023 0 1 1 0.879422,-0.044941z" id="path5225"/>
   <path fill="#800000" id="path5227" d="m3.12962,1.486546a0.089309,0.239701 0 1 1 -0.178617,-1.23446a0.089309,0.239701 0 1 1 0.178617,1.23446z"/>
   <path fill="#800000" id="path5229" d="m3.519021,2.719214a0.406312,0.635622 0 1 1 -0.812623,0.376953a0.406312,0.635622 0 1 1 0.812623,-0.376953z"/>
   <path fill="#800000" id="path5231" d="m0.481393,3.626738a0.113865,0.092421 0 1 1 0.22773,-0.930882a0.113865,0.092421 0 1 1 -0.22773,0.930882z"/>
  </pattern>
  <pattern id="pattern5244" patternTransform="matrix(0.69232574,0,0,0.69244029,-50.326244,517.53648)" height="2.599502" width="2.599932" patternUnits="userSpaceOnUse">
   <rect fill="url(#pattern5247)" width="2.599932" height="2.599502" x="0" y="0" id="rect5242"/>
  </pattern>
  <pattern id="pattern5251" patternTransform="translate(-50.326244,517.5365)" height="1.8" width="1.8" patternUnits="userSpaceOnUse">
   <rect fill="url(#pattern5254)" width="1.8" height="1.8" x="0" y="0" id="rect5249"/>
  </pattern>
  <pattern id="pattern5310" patternTransform="translate(-50.417812,517.40181)" height="2.175213" width="2.341234" patternUnits="userSpaceOnUse">
   <path fill="#333333" id="path5266" d="m0.647455,0.543341a0.280418,0.330129 0 1 1 -0.560838,-0.306539a0.280418,0.330129 0 1 1 0.560838,0.306539z"/>
   <path fill="#333333" d="m0.800623,1.02685a0.302729,0.354729 0 1 1 -0.60546,0.288936a0.302729,0.354729 0 1 1 0.60546,-0.288936z" id="path5268"/>
   <path fill="#333333" id="path5270" d="m1.504261,0.314465a0.313016,0.423202 0 1 1 -0.626034,0.436279a0.313016,0.423202 0 1 1 0.626034,-0.436279z"/>
   <path fill="#333333" d="m0.419832,2.175217a0.00009,0.000119 0 1 1 -0.00018,-0.558594a0.00009,0.000119 0 1 1 0.00018,0.558594z" id="path5272"/>
   <path fill="#333333" d="m1.539433,1.830973a0.213404,0.286444 0 1 1 -0.42681,-0.565419a0.213404,0.286444 0 1 1 0.42681,0.565419z" id="path5274"/>
   <path fill="#333333" d="m2.218786,0.54952a0.228705,0.324385 0 1 1 -0.457411,-0.357928a0.228705,0.324385 0 1 1 0.457411,0.357928z" id="path5278"/>
   <path fill="#333333" id="path5280" d="m2.301873,1.878217a0.251249,0.360414 0 1 1 -0.502501,-0.230207a0.251249,0.360414 0 1 1 0.502501,0.230207z"/>
   <path fill="#333333" id="path5282" d="m2.032035,0.80549a0.014619,0.019815 0 1 1 -0.029238,0.466052a0.014619,0.019815 0 1 1 0.029238,-0.466052z"/>
  </pattern>
  <pattern id="pattern5342" patternTransform="translate(-50.393454,512.78181)" height="4" width="4" patternUnits="userSpaceOnUse">
   <g fill="#800000" id="g5324" transform="matrix(1.7195441,0.05329233,-0.04947654,1.852161,117.38614,-950.24007)">
    <path fill="#800000" d="m-52.7938,515.085754c-0.130775,0.182373 -0.362331,0.261536 -0.517208,0.17688c-0.154877,-0.084656 -0.174408,-0.301086 -0.043629,-0.483398c0.130779,-0.182312 0.362331,-0.261536 0.517208,-0.17688c0.154877,0.084656 0.174408,0.301086 0.043629,0.483398z" id="path5326"/>
    <path fill="#800000" id="path5328" d="m-52.640625,515.569275c0.123848,0.195923 0.088711,0.419434 -0.078487,0.499207c-0.167198,0.079834 -0.403122,-0.014343 -0.52697,-0.210266c-0.123848,-0.195923 -0.088711,-0.419373 0.078487,-0.499146c0.167202,-0.079834 0.403126,0.014343 0.52697,0.210205z"/>
    <path fill="#800000" d="m-51.936977,514.856934c0.162071,0.233704 0.153316,0.520813 -0.019566,0.641296c-0.172878,0.120483 -0.444397,0.028687 -0.606468,-0.205017c-0.162071,-0.233765 -0.153316,-0.520874 0.019566,-0.641357c0.172878,-0.120483 0.444397,-0.028687 0.606468,0.205078z" id="path5330"/>
    <path fill="#800000" id="path5332" d="m-53.021408,516.717651c-0.212502,0.000061 -0.384804,-0.124939 -0.384853,-0.279175c-0.00005,-0.154236 0.172169,-0.279358 0.384674,-0.279419c0.212505,-0.000061 0.384808,0.124939 0.384857,0.279175c0.00005,0.154297 -0.172173,0.279358 -0.384678,0.279419z"/>
    <path fill="#800000" id="path5334" d="m-51.901821,516.373413c-0.211571,0.158203 -0.478619,0.159851 -0.596481,0.003723c-0.117867,-0.156128 -0.041901,-0.41095 0.169674,-0.569153c0.211571,-0.158203 0.478619,-0.159851 0.596481,-0.003723c0.117867,0.156128 0.041901,0.41095 -0.169674,0.569153z"/>
    <path fill="#800000" id="path5336" d="m-51.22245,515.09198c-0.126747,0.179138 -0.331882,0.244263 -0.458199,0.145386c-0.126312,-0.098816 -0.125961,-0.324158 0.000786,-0.503357c0.126747,-0.179138 0.331879,-0.244263 0.458195,-0.145386c0.126316,0.098816 0.125961,0.324158 -0.000782,0.503357z"/>
    <path fill="#800000" d="m-51.139374,516.420654c-0.080601,0.199097 -0.258423,0.308899 -0.39719,0.2453c-0.138767,-0.063538 -0.185913,-0.276428 -0.105309,-0.475525c0.080601,-0.199036 0.258423,-0.308838 0.39719,-0.2453c0.138767,0.063599 0.185913,0.276489 0.105309,0.475525z" id="path5338"/>
    <path fill="#800000" d="m-51.409218,515.347961c0.173546,0.010925 0.307682,0.124084 0.29961,0.252808c-0.008076,0.128723 -0.1553,0.224182 -0.32885,0.213196c-0.173546,-0.010925 -0.307682,-0.124146 -0.299606,-0.252808c0.008072,-0.128723 0.1553,-0.224182 0.328846,-0.213196z" id="path5340"/>
   </g>
  </pattern>
  <pattern id="pattern5426" patternTransform="translate(-50.633428,507.29656)" height="4.508552" width="4.531986" patternUnits="userSpaceOnUse">
   <g id="g5395">
    <path fill="#800000" id="path5363" d="m0.790112,2.825547c-0.436255,0.000123 -0.789976,-0.234545 -0.790078,-0.524189c-0.000102,-0.289645 0.353453,-0.524513 0.789708,-0.524636c0.436255,-0.000123 0.789976,0.234545 0.790078,0.52419c0.000102,0.289645 -0.353453,0.524513 -0.789708,0.524636z"/>
    <path fill="#800000" id="path5367" d="m3.826119,1.481016c-0.45448,0.31616 -0.898404,0.296819 -0.991566,-0.043236c-0.093162,-0.340055 0.199739,-0.871969 0.654219,-1.188129c0.45448,-0.31616 0.898404,-0.296819 0.991567,0.043236c0.093162,0.340055 -0.199739,0.871969 -0.654219,1.188129z"/>
    <path fill="#800000" d="m2.313537,1.647475c0.326626,0.029191 0.57908,0.331124 0.563883,0.67444c-0.015195,0.343293 -0.292285,0.597923 -0.618911,0.568732c-0.326626,-0.029191 -0.579079,-0.331146 -0.563883,-0.67444c0.015197,-0.343316 0.292285,-0.597923 0.618911,-0.568732z" id="path5371"/>
    <path fill="#800000" d="m3.742261,2.778672c-0.436255,0.000124 -0.789976,-0.234545 -0.790078,-0.524189c-0.000102,-0.289645 0.353453,-0.524513 0.789708,-0.524636c0.436255,-0.000123 0.789976,0.234545 0.790078,0.52419c0.000102,0.289645 -0.353454,0.524513 -0.789708,0.524636z" id="path5383"/>
    <path fill="#800000" id="path5385" d="m2.790402,0.789694c0.000123,0.436255 -0.234554,0.789976 -0.52419,0.790078c-0.289636,0.000102 -0.524513,-0.353453 -0.524636,-0.789708c-0.000123,-0.436255 0.234554,-0.789976 0.524189,-0.790078c0.289636,-0.000102 0.524513,0.353453 0.524637,0.789708z"/>
    <path fill="#800000" d="m2.813832,3.718458c0.000123,0.436255 -0.234554,0.789976 -0.52419,0.790078c-0.289635,0.000102 -0.524513,-0.353454 -0.524636,-0.789708c-0.000123,-0.436255 0.234554,-0.789976 0.524189,-0.790078c0.289636,-0.000102 0.524513,0.353453 0.524637,0.789708z" id="path5387"/>
    <path fill="#800000" d="m1.049691,4.280928c-0.45448,0.31616 -0.898404,0.296819 -0.991567,-0.043236c-0.093162,-0.340055 0.199739,-0.871969 0.654219,-1.188129c0.45448,-0.31616 0.898404,-0.296819 0.991567,0.043236c0.093162,0.340055 -0.199739,0.871969 -0.654219,1.188128z" id="path5389"/>
    <path fill="#800000" id="path5391" d="m1.496655,0.720055c0.31616,0.45448 0.296797,0.89841 -0.043236,0.991566c-0.340055,0.093162 -0.871969,-0.199739 -1.188129,-0.654219c-0.31616,-0.45448 -0.296804,-0.898382 0.043251,-0.991545c0.340033,-0.093156 0.871954,0.199717 1.188113,0.654197z"/>
    <path fill="#800000" d="m4.249707,3.44967c0.31616,0.45448 0.296797,0.89841 -0.043236,0.991566c-0.340055,0.093162 -0.871969,-0.199739 -1.188129,-0.654219c-0.31616,-0.45448 -0.296804,-0.898382 0.043251,-0.991544c0.340033,-0.093156 0.871954,0.199717 1.188114,0.654197z" id="path5393"/>
   </g>
  </pattern>
  <pattern id="pattern5478" patternTransform="translate(-82.238578,518.8986)" height="5.602892" width="5.599999" patternUnits="userSpaceOnUse">
   <path fill="#800000" id="path5442" d="m1.548618,1.401717a0.670733,0.849903 0 1 1 -1.341469,-0.789172a0.670733,0.849903 0 1 1 1.341469,0.789172z"/>
   <path fill="#800000" d="m1.989064,2.646486a0.724098,0.913235 0 1 1 -1.4482,0.743855a0.724098,0.913235 0 1 1 1.4482,-0.743855z" id="path5444"/>
   <path fill="#740000" id="path5446" d="m3.598073,0.664368a0.748704,1.089517 0 1 1 -1.497413,1.123182a0.748704,1.089517 0 1 1 1.497413,-1.123182z"/>
   <path fill="#7b0000" d="m1.004295,5.602891a0.000216,0.000306 0 1 1 -0.000431,-1.438077a0.000216,0.000306 0 1 1 0.000431,1.438077z" id="path5448"/>
   <path fill="#800000" d="m3.682199,4.716671a0.510442,0.737438 0 1 1 -1.020887,-1.455648a0.510442,0.737438 0 1 1 1.020887,1.455648z" id="path5450"/>
   <path fill="#800000" d="m5.307185,1.417598a0.547039,0.835117 0 1 1 -1.094082,-0.92147a0.547039,0.835117 0 1 1 1.094082,0.92147z" id="path5452"/>
   <path fill="#800000" id="path5454" d="m5.505871,4.838303a0.600964,0.927873 0 1 1 -1.201931,-0.592659a0.600964,0.927873 0 1 1 1.201931,0.592659z"/>
   <path fill="#800000" id="path5456" d="m4.860442,2.07661a0.034967,0.051012 0 1 1 -0.069934,1.199833a0.034967,0.051012 0 1 1 0.069934,-1.199833z"/>
  </pattern>
  <filter id="filter5500">
   <feGaussianBlur id="feGaussianBlur5502" stdDeviation="0.028007"/>
  </filter>
  <pattern id="pattern5504" patternTransform="translate(-80.016642,517.46531)" height="5.737327" width="5.734434" patternUnits="userSpaceOnUse">
   <rect fill="url(#pattern5507)" filter="url(#filter5500)" width="5.599999" height="5.602892" x="0.067217" y="0.067217" id="rect5488"/>
  </pattern>
 </defs>
 <metadata id="metadata2827">image/svg+xml</metadata>
 <g>
  <title>Layer 1</title>
  <path fill="#007f00" fill-rule="evenodd" id="path2832" d="m106.388939,689.269592l7.82814,6.222595c50.605568,-64.232422 115.43969,-117.186401 188.009697,-155.305359c72.573547,-38.112244 153.095154,-61.501953 235.008209,-66.732056c0,0 0,0 0,0c28.245422,-1.807495 56.714539,-1.601257 85.21759,-2.976746c28.302368,-1.354614 56.81781,-4.359863 84.15094,-12.464966c27.440796,-8.12854 53.73114,-21.699768 74.045654,-42.009888c20.325806,-20.319214 34.146179,-47.832214 35.062378,-76.595032c0.779968,-24.989136 -8.698914,-50.416565 -26.744568,-67.672424c0,0 0,0 0,-0.000061c-9.030151,-8.624939 -20.071838,-15.147644 -32.03363,-18.690247c-11.962952,-3.542053 -24.818909,-4.064453 -36.970032,-1.305481c-12.151672,2.760193 -23.548096,8.823792 -32.470398,17.494507c0,0 0,0 -0.000061,0c-8.921997,8.671997 -15.30835,19.940063 -17.960876,32.071899c0,0.000061 0,0.000061 0,0.000061c-2.651428,12.132507 -1.519653,25.07843 3.37207,36.463257c4.892822,11.384583 13.555481,21.130066 24.358948,27.134521c8.701843,4.835327 18.728821,7.23291 28.653809,6.863647c9.924927,-0.369385 19.722839,-3.504639 28.002319,-8.947998c-8.324951,5.373596 -18.129272,8.413818 -28.010559,8.698303c-9.881287,0.284668 -19.821106,-2.18689 -28.401001,-7.049744c-10.652405,-6.036194 -19.130249,-15.755432 -23.858154,-27.015381c-4.729431,-11.260864 -5.72522,-24.019958 -3.02417,-35.903015c2.700256,-11.884705 9.067566,-22.880493 17.860291,-31.285828c0,0 0.000061,0 0.000061,0c8.79303,-8.407227 19.990417,-14.233276 31.856323,-16.825378c11.867126,-2.593506 24.397827,-1.96936 36.001221,1.570618c11.605103,3.539429 22.290222,9.983459 30.986267,18.427063c17.385437,16.860901 26.344543,41.700012 25.402832,65.86731c-1.066833,27.857117 -14.81134,54.47644 -34.68689,74.077209c-19.901184,19.623962 -45.724854,32.61792 -72.67981,40.399536c-26.871338,7.749207 -55.020203,10.448303 -83.138489,11.580627c-28.324158,1.129333 -56.803772,0.684631 -85.339783,2.264954c0,0 0,0 -0.000061,0c-82.815247,4.598083 -164.466705,27.53302 -238.313141,65.533875c-73.84996,37.994141 -140.105072,91.161255 -192.185104,156.109619l-0.000023,0z"/>
  <path fill="#007f00" fill-rule="evenodd" id="path2838" d="m683.739319,462.65509c9.582581,-2.867493 19.362976,-4.007507 28.79834,-3.598083c6.851074,-0.988647 13.819336,-1.159546 20.7005,-0.474243c16.109314,1.599915 31.774963,7.895813 44.519043,17.898865c12.746765,9.999695 22.597168,23.726501 27.990479,39.016663c0,0 0,0 0,0.000061c5.397339,15.288757 6.347473,32.169434 2.694031,47.978699c-3.504211,15.177673 -11.249756,29.400269 -22.138733,40.54895c-10.885925,11.150635 -24.935669,19.245117 -40.061523,23.023743c-15.124451,3.781982 -31.350464,3.252136 -46.188049,-1.557678c-14.838135,-4.806091 -28.310059,-13.901917 -38.281067,-25.905823c0,0 0,0 0,0c-11.265564,-13.588257 -18.091614,-31.200256 -17.220398,-48.719543c0.423889,-8.766541 2.718262,-17.464172 6.861694,-25.169922c1.872498,-3.483826 4.125122,-6.769775 6.704346,-9.768311c3.050232,-3.695862 6.596802,-6.989624 10.553894,-9.716492c7.220276,-4.977844 15.832642,-8.07782 24.670105,-8.603455c8.834656,-0.527344 17.908813,1.533264 25.614929,6.090515c0,0 0,0 0,0c7.705139,4.555115 14.021545,11.625244 17.502563,20.003479c3.480774,8.377502 4.073364,18.038757 1.362854,26.84375c-1.848083,5.99646 -5.195007,11.554382 -9.68689,16.027466c4.592407,-4.367859 8.092285,-9.870789 10.101501,-15.890259c2.945374,-8.841125 2.599976,-18.685608 -0.773743,-27.373596c-3.376099,-8.684509 -9.694641,-16.142883 -17.600464,-21.071594c0,-0.000061 0,-0.000061 0,-0.000061c-7.905273,-4.925232 -17.307068,-7.322571 -26.611206,-6.987976c-9.301941,0.336548 -18.448853,3.358643 -26.229919,8.455017c-7.778748,5.096497 -14.175903,12.209961 -18.601746,20.378601c-4.424194,8.167542 -6.891968,17.345093 -7.37085,26.609985c-0.940796,18.52832 6.081848,37.001892 17.858765,51.266174c10.386169,12.59668 24.404297,22.148499 39.936035,27.248718c15.532288,5.097351 32.490784,5.723389 48.385864,1.816772c15.894104,-3.909363 30.639954,-12.321655 42.135254,-24.001953c11.49292,-11.682068 19.678467,-26.562073 23.433899,-42.534058c0,0 0,-0.000061 0,-0.000061c3.909485,-16.639343 2.985779,-34.374023 -2.645935,-50.539124c-5.635254,-16.163757 -15.942688,-30.655151 -29.387085,-41.292297c0,0 0,0 0,0c-13.446899,-10.633911 -29.942261,-17.343628 -47.020081,-19.111206c-17.078247,-1.763306 -34.622742,1.427368 -50.006409,9.108276z"/>
  <path fill="#007f00" fill-rule="evenodd" id="path2844" d="m190.451019,605.923035l4.999634,6.089905c34.007263,-28.158875 59.440903,-66.388733 72.269592,-108.522217c12.822418,-42.135376 12.971008,-87.947876 0.481537,-130.069458c-5.886597,-19.910889 -14.709854,-39.22937 -27.713867,-55.617065c-13.009842,-16.402161 -30.46344,-29.653442 -50.560745,-35.913757c-20.121475,-6.263184 -42.862244,-4.916382 -61.303299,5.425781c-9.214218,5.184998 -17.21479,12.552734 -22.936272,21.459839c-5.721581,8.910889 -9.086319,19.340271 -9.402466,29.933716c-0.360634,12.31897 3.496239,24.702332 10.885353,34.54071c7.395386,9.836487 18.265007,16.97821 30.23735,19.725159c0,0 0.000015,0 0.000031,0c11.975845,2.741028 24.901062,1.006042 35.643875,-4.90094c0.000015,0 0.000031,0 0.000031,0c10.741211,-5.91394 19.11937,-15.953308 22.881561,-27.593445c4.055908,-12.583374 2.572891,-26.789307 -3.956421,-38.231018c6.401001,11.514282 7.693573,25.679382 3.536102,38.093506c-3.853226,11.48584 -12.255753,21.295593 -22.868851,26.983276c0,0 -0.000015,0 -0.000031,0c-10.61409,5.685242 -23.31102,7.224121 -34.949875,4.420593c-11.638779,-2.804626 -22.13765,-9.896729 -29.18457,-19.495361c-7.047256,-9.599121 -10.62767,-21.634094 -10.145996,-33.473145c0,0 0,0 0,0c0.41362,-10.187927 3.781433,-20.191772 9.365417,-28.681396c5.58429,-8.490906 13.363686,-15.476379 22.251114,-20.349976c17.758133,-9.749695 39.681015,-10.718628 58.900284,-4.529541c19.243378,6.194336 35.904007,19.221741 48.314606,35.181824c12.417191,15.972839 20.7444,34.869141 26.305496,54.394348c0.000031,0 0.000031,0 0.000031,0.000061c11.742371,41.319214 11.041748,86.0448 -1.884216,126.810791c-12.920456,40.767639 -38.056122,77.54895 -71.165405,104.31781c0,0 0,0 0,0z"/>
  <path fill="#007f00" fill-rule="evenodd" id="path2850" d="m273.891174,405.61499c1.271179,3.770325 2.4953,7.576111 3.670868,11.416382c6.673126,-43.117615 7.196228,-87.153564 1.561401,-130.373108c-1.561218,-11.979309 -3.558472,-23.788574 -4.696869,-35.592102c-1.119141,-11.706238 -1.419495,-23.463135 0.421234,-34.867981c2.692413,-16.805267 10.046143,-32.930817 21.227325,-45.766815c0,0 0.000031,0 0.000031,-0.000031c11.174255,-12.835236 26.21344,-22.399597 42.673187,-26.755707c16.453003,-4.360321 34.365875,-3.499756 50.218781,2.734711c15.850006,6.226044 29.654724,17.863159 38.195618,32.617401c10.830322,18.666077 12.933899,42.355438 5.600464,62.738129c-7.31781,20.390869 -24.012573,37.370239 -44.326324,45.125793c-0.000031,0.000061 -0.000031,0.000061 -0.000031,0.000061c-12.915405,4.92395 -27.357849,6.258179 -40.678833,2.733948c-13.303833,-3.515381 -25.476379,-12.030334 -32.436737,-23.873169c-3.489624,-5.92334 -5.694794,-12.625671 -6.262817,-19.472778c0,0 0,0 0,-0.000061c-0.568787,-6.845459 0.499786,-13.849243 3.213287,-20.157349c2.711761,-6.307007 7.077148,-11.930054 12.599915,-16.008362c5.520294,-4.07843 12.212677,-6.615997 19.062531,-7.083221c8.088226,-0.546722 16.507507,1.886444 22.572968,7.222809c3.039307,2.666504 5.490448,6.023132 7.011719,9.762939c1.521393,3.73822 2.117249,7.870117 1.616516,11.870483c-0.385315,3.092896 -1.420013,6.110901 -3.016785,8.793457c1.64679,-2.660645 2.737183,-5.670715 3.179016,-8.772583c0.57605,-4.030884 0.047516,-8.218323 -1.427246,-12.032959c-1.481171,-3.832397 -3.914581,-7.294373 -6.967194,-10.06958c-6.127472,-5.575745 -14.698914,-8.238281 -23.03656,-7.817108c-0.000031,0 -0.000031,0 -0.000031,0c-7.072479,0.357056 -14.029144,2.840485 -19.839203,6.974213c-0.000031,0 -0.000031,0 -0.000031,0c-5.807495,4.132507 -10.4617,9.884827 -13.417969,16.438049c-2.945923,6.531921 -4.212524,13.829773 -3.738617,21.053101c0.47168,7.17926 2.642426,14.262878 6.230499,20.59613c7.086761,12.480713 19.594604,21.780151 33.805237,25.758606c13.822327,3.864624 29.024261,2.886902 42.930145,-2.211548c10.456421,-3.826111 20.194916,-9.995483 28.40683,-18.031189c8.211914,-8.035767 14.900574,-17.940979 19.081238,-29.140808c3.894379,-10.471619 5.526428,-21.947876 4.701355,-33.489319c-0.825104,-11.541382 -4.107544,-23.152313 -10.070557,-33.660858c-4.409393,-7.743652 -10.201691,-14.809204 -17.104492,-20.831909c-6.902802,-6.022675 -14.917114,-11.003235 -23.707275,-14.512909c-8.270447,-3.296661 -17.167603,-5.286194 -26.301117,-5.855774c-9.133545,-0.56958 -18.504425,0.280853 -27.641968,2.672791c-8.594818,2.254089 -16.940948,5.844727 -24.698486,10.653229c-7.757538,4.808472 -14.927063,10.835327 -21.107941,17.925751c-5.818878,6.67984 -10.746948,14.264496 -14.592773,22.502106c-3.845856,8.23761 -6.609619,17.128754 -8.074768,26.36673c-1.876617,11.928467 -1.62738,24.207092 -0.396271,36.438049c1.183685,11.859924 3.223267,23.728271 4.848297,35.778503c2.483429,18.421997 3.927277,37.547485 4.121887,57.286987c0.194611,19.739441 -0.859772,40.093994 -3.409454,60.91687z"/>
  <path fill="#007f00" fill-rule="evenodd" d="m334.045319,520.911926c9.10498,-4.459778 18.569366,-7.679871 28.08548,-9.708374c12.98526,-5.355103 26.899536,-8.482178 40.9245,-9.092712c23.583282,-1.031555 47.492706,5.052246 67.727997,17.243652c20.237793,12.187317 36.809937,30.487549 46.940155,51.84967c0,0 0,0 0,0c10.13446,21.360107 13.829773,45.788452 10.45929,69.207764c-1.951965,13.473022 -6.20813,26.691467 -13.548523,38.000977c0,0 0,0 0,0c-7.332123,11.293823 -17.82254,20.720703 -30.24765,25.5896c-12.392609,4.862488 -26.843231,5.079346 -38.802765,-0.517578c0,0 -0.000031,0 -0.000031,0c-5.9935,-2.789307 -11.363129,-6.966614 -15.392517,-12.171997c0,0 -0.000031,0 -0.000031,0c-4.028778,-5.201538 -6.744171,-11.453491 -7.626495,-17.946167c-1.403748,-10.154297 1.844452,-20.945129 8.466736,-28.823303c1.800201,-2.147766 3.851257,-4.084656 6.090912,-5.783997c5.901215,-4.668213 13.222229,-7.688782 20.799744,-8.48053c7.254822,-0.742615 14.856201,0.495667 21.099976,4.283325c0,0 0,0 0.000031,0c6.22644,3.772644 11.080475,10.218506 12.169769,17.504883c0.951721,6.293396 -0.993103,13.123413 -5.430084,17.850281c-2.220276,2.366943 -5.027039,4.210632 -8.12616,5.278015c-3.099091,1.067322 -6.487305,1.353333 -9.749054,0.771362c-6.137543,-1.097168 -11.681183,-5.413025 -14.25708,-11.236389c-2.567719,-5.826782 -2.074768,-12.953796 1.386169,-18.456177c-3.579559,5.424377 -4.270538,12.599854 -1.779236,18.620483c2.505493,6.014709 8.082001,10.606384 14.483459,11.907715c3.394775,0.684143 6.950043,0.471558 10.246002,-0.580261c3.294952,-1.052551 6.308075,-2.927246 8.729156,-5.392395c4.838257,-4.94397 7.113098,-12.140625 6.23999,-18.988953c-1.031281,-7.904175 -6.014099,-14.96936 -12.692505,-19.205994c-6.666504,-4.224365 -14.762756,-5.791931 -22.552643,-5.151428c-11.180969,0.901062 -21.965912,6.29126 -29.248199,14.878174c-7.277344,8.596069 -10.835724,20.266296 -9.356537,31.476318c0,0 0,0.000061 0,0.000061c0.952911,7.142212 3.878052,13.971252 8.265076,19.671448c4.386841,5.697693 10.184845,10.254395 16.681885,13.302246c13.002808,6.076782 28.441498,5.957092 41.753632,0.756287c13.296204,-5.199219 24.445923,-15.085815 32.194763,-26.982727c7.744385,-11.887817 12.260132,-25.634644 14.308167,-39.577393c3.577515,-24.230774 -0.137024,-49.490723 -10.563721,-71.695374c-0.000061,-0.000061 -0.000061,-0.000061 -0.000061,-0.000061c-10.430359,-22.202942 -27.513977,-41.225159 -48.509705,-53.983643c-20.998016,-12.7547 -45.784393,-19.170532 -70.370636,-18.193787c-24.58606,0.981445 -48.821167,9.349426 -68.799255,23.776978z" id="path2862"/>
  <g fill="url(#pattern5504)" transform="matrix(0.811768 0 0 0.746578 34.8018 174.903)" id="g2911">
   <path fill="#007f00" fill-rule="evenodd" d="m602.629211,220.3237c3.274231,-1.508972 6.519348,-3.265991 9.702759,-5.264343c7.67688,-12.559998 12.370667,-26.795227 13.623718,-41.247559c0,0 0,0 0,0c1.541016,-17.810059 -2.151978,-35.849304 -10.3255,-51.358887c0,0 0,0 0,0c-3.406677,-6.464294 -7.572815,-12.494812 -12.369385,-17.929077c4.305176,5.839233 7.88324,12.157227 10.650513,18.762329c3.127197,7.462524 5.196655,15.303467 6.206299,23.221619c1.819641,8.762024 2.341614,17.825562 1.469238,26.780029c-1.644897,16.932007 -8.280762,33.506775 -18.957642,47.035889c0,0 0,0 0,0z" id="path2856"/>
   <g fill="url(#pattern5504)" id="g2872">
    <path fill="#007f00" id="path2868" d="m629.915833,182.357025c0,0 17.40918,-18.470764 25.052246,-39.276855c6.369263,19.532288 -11.252258,36.092224 -25.052246,39.276855z"/>
    <path fill="#007f00" d="m627.939758,181.386444c0,0 13.592102,-13.279846 26.078491,-39.464966c-19.991455,1.53833 -28.603333,25.541504 -26.078491,39.464966z" id="path2870"/>
   </g>
   <g fill="url(#pattern5504)" id="g2876" transform="matrix(0.885611 -0.227989 0.230144 0.893982 -71.6548 154.768)">
    <path fill="#007f00" d="m742.482788,162.097687c0,0 17.40918,-18.470764 25.052246,-39.276855c6.369263,19.532288 -11.252258,36.092224 -25.052246,39.276855z" id="path2878"/>
    <path fill="#007f00" id="path2880" d="m740.506714,161.127106c0,0 13.592102,-13.279846 26.078491,-39.464966c-19.991455,1.53833 -28.603333,25.541504 -26.078491,39.464966z"/>
   </g>
   <g fill="url(#pattern5504)" transform="matrix(0.337716 -0.595287 0.555737 0.372105 61.1315 669.572)" id="g2882">
    <path fill="#007f00" id="path2884" d="m1132.596313,289.790436c0,0 17.40918,-18.470764 25.052246,-39.276855c6.369263,19.532288 -11.252319,36.092224 -25.052246,39.276855z"/>
    <path fill="#007f00" d="m1130.620239,288.819855c0,0 13.592041,-13.279846 26.078491,-39.464966c-19.991455,1.53833 -28.603394,25.541504 -26.078491,39.464966z" id="path2886"/>
   </g>
   <g fill="url(#pattern5504)" transform="matrix(-0.805265 0.444524 0.443882 0.809814 859.103 -210.147)" id="g2888">
    <path fill="#007f00" id="path2890" d="m414.145203,203.82605c0,0 17.40918,-18.470764 25.052246,-39.276855c6.369263,19.532288 -11.252258,36.092224 -25.052246,39.276855z"/>
    <path fill="#007f00" d="m412.169128,202.855469c0,0 13.592102,-13.279846 26.078491,-39.464966c-19.991455,1.53833 -28.603333,25.541504 -26.078491,39.464966z" id="path2892"/>
   </g>
   <g fill="url(#pattern5504)" id="g2894" transform="matrix(-1.24472 0 0 1 1397.08 12.5261)">
    <path fill="#007f00" d="m629.915833,182.357025c0,0 17.40918,-18.470764 25.052246,-39.276855c6.369263,19.532288 -11.252258,36.092224 -25.052246,39.276855z" id="path2896"/>
    <path fill="#007f00" id="path2898" d="m627.939758,181.386444c0,0 13.592102,-13.279846 26.078491,-39.464966c-19.991455,1.53833 -28.603333,25.541504 -26.078491,39.464966z"/>
   </g>
  </g>
  <g fill="url(#pattern5504)" transform="matrix(0.811768 0 0 0.746578 46.5212 269.371)" id="g2906">
   <path fill="#007f00" id="path2900" d="m500.620697,150.772568c0,1.43428 -0.855469,2.597 -1.910767,2.597c-1.055298,0 -1.910767,-1.16272 -1.910767,-2.597c0,-1.43428 0.855469,-2.596985 1.910767,-2.596985c1.055298,0 1.910767,1.162704 1.910767,2.596985z"/>
   <path fill="#007f00" d="m497.113281,157.450195c0.389404,1.594711 -0.126007,3.090393 -1.151184,3.340714c-1.025177,0.25032 -2.171875,-0.839523 -2.561279,-2.434235c-0.389374,-1.594696 0.126038,-3.090393 1.151215,-3.340714c1.025177,-0.25032 2.171875,0.839523 2.561249,2.434235z" id="path2902"/>
   <path fill="#007f00" id="path2904" d="m504.732574,158.48793c-0.502136,1.562881 -1.723663,2.568161 -2.728394,2.245361c-1.0047,-0.3228 -1.412109,-1.85144 -0.909973,-3.414307c0.502106,-1.562866 1.723633,-2.568161 2.728363,-2.245361c1.0047,0.3228 1.412109,1.85144 0.910004,3.414307z"/>
  </g>
  <g fill="url(#pattern5504)" transform="matrix(0.811768 0 0 0.746578 46.5212 269.371)" id="g2981">
   <path fill="#007f00" fill-rule="evenodd" id="path2931" d="m510.817444,280.738068c6.029968,0.906433 12.165527,1.53595 18.38031,1.886047c28.233276,-6.194031 55.048035,-18.162292 78.595032,-34.550415c28.459045,-19.800598 52.277893,-46.151855 68.257446,-76.577515c0,0 0,0 0,-0.000061c3.384338,-6.443481 6.43866,-13.052551 9.148438,-19.792603c-3.035278,6.602051 -6.40094,13.040161 -10.077881,19.282043c-10.426208,17.703064 -23.520813,33.678589 -38.5177,47.494385c-9.560425,9.589844 -20.03717,18.302307 -31.223877,25.984131c-28.030212,19.237671 -60.653259,32.103333 -94.561768,36.273987c0,0 0,0 0,0z"/>
   <g fill="url(#pattern5504)" transform="matrix(0.592237 0.562086 -0.579772 0.585076 654.794 -119.361)" id="g2939">
    <path fill="#007f00" id="path2941" d="m273.881317,231.575714c0,0 17.40918,-18.470764 25.052246,-39.276855c6.369263,19.532288 -11.252258,36.092224 -25.052246,39.276855z"/>
    <path fill="#007f00" d="m271.905243,230.605133c0,0 13.592102,-13.279846 26.078491,-39.464966c-19.991455,1.53833 -28.603333,25.541504 -26.078491,39.464966z" id="path2943"/>
   </g>
   <g fill="url(#pattern5504)" id="g2945" transform="matrix(0.684044 -0.022396 -0.0275744 0.668241 272.585 181.492)">
    <path fill="#007f00" d="m604.973999,-23.473633c0,0 17.40918,-18.470764 25.052246,-39.276855c6.369263,19.532288 -11.252258,36.092224 -25.052246,39.276855z" id="path2947"/>
    <path fill="#007f00" id="path2949" d="m602.997925,-24.444214c0,0 13.592102,-13.279846 26.078491,-39.464966c-19.991455,1.53833 -28.603333,25.541504 -26.078491,39.464966z"/>
   </g>
   <g fill="url(#pattern5504)" id="g2951" transform="matrix(-0.763035 -0.109248 -0.103385 0.772581 1213.09 187.606)">
    <path fill="#007f00" d="m700.968262,70.859619c0,0 17.40918,-18.470764 25.052246,-39.276855c6.369263,19.532288 -11.252258,36.092224 -25.052246,39.276855z" id="path2953"/>
    <path fill="#007f00" id="path2955" d="m698.992188,69.889038c0,0 13.592102,-13.279846 26.078491,-39.464966c-19.991455,1.53833 -28.603333,25.541504 -26.078491,39.464966z"/>
   </g>
  </g>
  <g fill="url(#pattern5504)" transform="matrix(0.737842 -0.311282 -0.261482 -0.524249 73.1939 1388.74)" id="g2993">
   <path fill="#007f00" fill-rule="evenodd" d="m682.977051,1179.440918c6.029968,0.906372 12.165527,1.535889 18.38031,1.885986c28.233276,-6.194092 55.048035,-18.162354 78.595032,-34.550415c28.459045,-19.800537 52.277893,-46.151855 68.257446,-76.577515c0,0 0,0 0,0c3.384338,-6.443604 6.43866,-13.052612 9.148438,-19.792603c-3.035278,6.602051 -6.40094,13.040161 -10.077881,19.281982c-10.426208,17.703003 -23.520813,33.678589 -38.5177,47.494385c-9.560425,9.589844 -20.03717,18.302368 -31.223877,25.984131c-28.030212,19.237671 -60.653259,32.103394 -94.561768,36.274048c0,0 0,0 0,0z" id="path2995"/>
   <g fill="url(#pattern5504)" id="g2997" transform="matrix(0.592237 0.562086 -0.579772 0.585076 654.794 -119.361)">
    <path fill="#007f00" d="m1198.603394,879.234619c0,0 17.40918,-18.470764 25.052246,-39.276855c6.369263,19.532288 -11.252319,36.092224 -25.052246,39.276855z" id="path2999"/>
    <path fill="#007f00" id="path3001" d="m1196.627319,878.264038c0,0 13.592163,-13.279846 26.078491,-39.464966c-19.991455,1.53833 -28.603271,25.541504 -26.078491,39.464966z"/>
   </g>
   <g fill="url(#pattern5504)" transform="matrix(0.684044 -0.022396 -0.0275744 0.668241 272.585 181.492)" id="g3003">
    <path fill="#007f00" id="path3005" d="m911.279968,1331.670898c0,0 17.409241,-18.470825 25.052307,-39.276855c6.369202,19.532227 -11.252319,36.092163 -25.052307,39.276855z"/>
    <path fill="#007f00" d="m909.303955,1330.700195c0,0 13.592041,-13.279785 26.078491,-39.464844c-19.991455,1.53833 -28.603394,25.541504 -26.078491,39.464844z" id="path3007"/>
   </g>
   <g fill="url(#pattern5504)" transform="matrix(-0.763035 -0.109248 -0.103385 0.772581 1213.09 187.606)" id="g3009">
    <path fill="#007f00" id="path3011" d="m324.937775,1180.934204c0,0 17.40918,-18.470825 25.052246,-39.276978c6.369263,19.532349 -11.252258,36.092285 -25.052246,39.276978z"/>
    <path fill="#007f00" d="m322.9617,1179.963623c0,0 13.592102,-13.279907 26.078491,-39.465088c-19.991455,1.538452 -28.603333,25.541626 -26.078491,39.465088z" id="path3013"/>
   </g>
  </g>
  <g fill="url(#pattern5504)" transform="matrix(0.758492 -0.266008 0.289235 0.697581 -297.442 500.184)" id="g3015">
   <path fill="#007f00" fill-rule="evenodd" d="m657.937439,307.837036c6.029968,0.906433 12.165527,1.53595 18.38031,1.886047c28.233276,-6.194031 55.048035,-18.162292 78.595032,-34.550415c28.459045,-19.800598 52.277893,-46.151855 68.257446,-76.577515c0,0 0,0 0,-0.000061c3.384338,-6.443481 6.43866,-13.052551 9.148438,-19.792603c-3.035278,6.602051 -6.40094,13.040161 -10.077881,19.282043c-10.426208,17.703064 -23.520813,33.678589 -38.5177,47.494385c-9.560425,9.589844 -20.03717,18.302307 -31.223877,25.984131c-28.030212,19.237671 -60.653259,32.103333 -94.561768,36.273987c0,0 0,0 0,0z" id="path3017"/>
   <g fill="url(#pattern5504)" id="g3019" transform="matrix(0.592237 0.562086 -0.579772 0.585076 654.794 -119.361)">
    <path fill="#007f00" d="m425.26413,132.458313c0,0 17.40921,-18.470764 25.052277,-39.276855c6.369232,19.532288 -11.252258,36.092224 -25.052277,39.276855z" id="path3021"/>
    <path fill="#007f00" id="path3023" d="m423.288055,131.487732c0,0 13.592133,-13.279846 26.078522,-39.464966c-19.991486,1.53833 -28.603333,25.541504 -26.078522,39.464966z"/>
   </g>
   <g fill="url(#pattern5504)" transform="matrix(0.684044 -0.022396 -0.0275744 0.668241 272.585 181.492)" id="g3025">
    <path fill="#007f00" id="path3027" d="m821.975708,24.351868c0,0 17.40918,-18.470764 25.052246,-39.276855c6.369263,19.532288 -11.252258,36.092224 -25.052246,39.276855z"/>
    <path fill="#007f00" d="m819.999634,23.381287c0,0 13.592102,-13.279846 26.078491,-39.464966c-19.991455,1.53833 -28.603333,25.541504 -26.078491,39.464966z" id="path3029"/>
   </g>
   <g fill="url(#pattern5504)" transform="matrix(-0.763035 -0.109248 -0.103385 0.772581 1213.09 187.606)" id="g3031">
    <path fill="#007f00" id="path3033" d="m507.120819,78.524231c0,0 17.40921,-18.470764 25.052277,-39.276855c6.369263,19.532288 -11.252258,36.092224 -25.052277,39.276855z"/>
    <path fill="#007f00" d="m505.144745,77.55365c0,0 13.592133,-13.279846 26.078522,-39.464966c-19.991486,1.53833 -28.603363,25.541504 -26.078522,39.464966z" id="path3035"/>
   </g>
  </g>
  <g fill="url(#pattern5504)" id="g3037" transform="matrix(0.0545054 -0.744893 0.809936 0.0501283 -314.623 952.299)">
   <path fill="#007f00" fill-rule="evenodd" id="path3039" d="m922.79303,665.921204c6.029968,0.906433 12.165527,1.53595 18.38031,1.886047c28.233276,-6.194031 55.048035,-18.162292 78.595032,-34.550415c28.459045,-19.800598 52.277893,-46.151855 68.257507,-76.577515c0,0 0,0 0,-0.000061c3.384277,-6.443481 6.438599,-13.052551 9.148438,-19.792603c-3.0354,6.602051 -6.401001,13.040161 -10.078003,19.282043c-10.426147,17.703064 -23.520752,33.678589 -38.5177,47.494385c-9.560303,9.589844 -20.037109,18.302307 -31.223816,25.984131c-28.030212,19.237671 -60.653259,32.103333 -94.561768,36.273987c0,0 0,0 0,0z"/>
   <g fill="url(#pattern5504)" transform="matrix(0.592237 0.562086 -0.579772 0.585076 654.794 -119.361)" id="g3041">
    <path fill="#007f00" id="path3043" d="m964.49054,226.450562c0,0 17.40918,-18.470764 25.052246,-39.276855c6.369263,19.532288 -11.252258,36.092224 -25.052246,39.276855z"/>
    <path fill="#007f00" d="m962.514465,225.47998c0,0 13.592102,-13.279846 26.078491,-39.464966c-19.991455,1.53833 -28.603333,25.541504 -26.078491,39.464966z" id="path3045"/>
   </g>
   <g fill="url(#pattern5504)" id="g3047" transform="matrix(0.684044 -0.022396 -0.0275744 0.668241 272.585 181.492)">
    <path fill="#007f00" d="m1231.320435,573.932068c0,0 17.409058,-18.470764 25.052246,-39.276855c6.369263,19.532288 -11.252319,36.092224 -25.052246,39.276855z" id="path3049"/>
    <path fill="#007f00" id="path3051" d="m1229.344238,572.961487c0,0 13.592163,-13.279846 26.078613,-39.464966c-19.991577,1.53833 -28.603394,25.541504 -26.078613,39.464966z"/>
   </g>
   <g fill="url(#pattern5504)" id="g3053" transform="matrix(-0.763035 -0.109248 -0.103385 0.772581 1213.09 187.606)">
    <path fill="#007f00" d="m104.919678,485.141327c0,0 17.40918,-18.470764 25.052246,-39.276855c6.369263,19.532288 -11.252258,36.092224 -25.052246,39.276855z" id="path3055"/>
    <path fill="#007f00" id="path3057" d="m102.943604,484.170746c0,0 13.592102,-13.279846 26.078491,-39.464966c-19.991455,1.53833 -28.603333,25.541504 -26.078491,39.464966z"/>
   </g>
  </g>
  <g fill="url(#pattern5504)" transform="matrix(0.810715 -0.0380084 0.0413273 0.74561 -113.084 209.498)" id="g3059">
   <path fill="#007f00" d="m521.641907,151.308075c0,1.434265 -0.855469,2.596985 -1.910767,2.596985c-1.055298,0 -1.910767,-1.16272 -1.910767,-2.596985c0,-1.43428 0.855469,-2.597 1.910767,-2.597c1.055298,0 1.910767,1.16272 1.910767,2.597z" id="path3061"/>
   <path fill="#007f00" id="path3063" d="m518.134521,157.985672c0.389404,1.594711 -0.126038,3.090393 -1.151184,3.340729c-1.025208,0.25032 -2.171936,-0.839539 -2.561279,-2.434235c-0.389404,-1.594711 0.125977,-3.090408 1.151184,-3.340729c1.025146,-0.25032 2.171875,0.839539 2.561279,2.434235z"/>
   <path fill="#007f00" d="m525.753784,159.023438c-0.502136,1.562866 -1.723633,2.568161 -2.728394,2.245361c-1.0047,-0.3228 -1.412109,-1.85144 -0.909973,-3.414322c0.502136,-1.562866 1.723633,-2.568161 2.728333,-2.245361c1.004761,0.3228 1.41217,1.85144 0.910034,3.414322z" id="path3065"/>
  </g>
  <g fill="url(#pattern5504)" id="g3067" transform="matrix(0.534278 0.562078 -0.611158 0.491373 239.728 1.31734)">
   <path fill="#007f00" id="path3069" d="m189.754059,291.918213c0,1.434265 -0.855469,2.596985 -1.910767,2.596985c-1.055298,0 -1.910767,-1.16272 -1.910767,-2.596985c0,-1.434296 0.855469,-2.597015 1.910767,-2.597015c1.055298,0 1.910767,1.16272 1.910767,2.597015z"/>
   <path fill="#007f00" d="m186.246658,298.595825c0.389389,1.594696 -0.126007,3.090393 -1.151184,3.340729c-1.025177,0.250305 -2.17189,-0.839539 -2.561279,-2.434235c-0.389374,-1.594727 0.126022,-3.090393 1.151199,-3.340729c1.025177,-0.250305 2.17189,0.839539 2.561264,2.434235z" id="path3071"/>
   <path fill="#007f00" id="path3073" d="m193.865936,299.633575c-0.502136,1.562866 -1.723648,2.568146 -2.728363,2.245361c-1.004715,-0.322815 -1.412125,-1.85144 -0.910004,-3.414307c0.502136,-1.562897 1.723648,-2.568176 2.728363,-2.245361c1.004715,0.322784 1.412125,1.85144 0.910004,3.414307z"/>
  </g>
  <g fill="url(#pattern5504)" transform="matrix(0.651855 -0.444938 0.483789 0.599507 -425.851 686.043)" id="g3075">
   <path fill="#007f00" d="m746.701111,232.11264c0,1.43428 -0.855469,2.596985 -1.910767,2.596985c-1.055298,0 -1.910767,-1.162704 -1.910767,-2.596985c0,-1.43428 0.855469,-2.597 1.910767,-2.597c1.055298,0 1.910767,1.16272 1.910767,2.597z" id="path3077"/>
   <path fill="#007f00" id="path3079" d="m743.193726,238.790253c0.389343,1.594711 -0.126038,3.090393 -1.151184,3.340714c-1.025208,0.250336 -2.171936,-0.839523 -2.561279,-2.434219c-0.389404,-1.594711 0.125977,-3.090408 1.151184,-3.340729c1.025146,-0.25032 2.171875,0.839539 2.561279,2.434235z"/>
   <path fill="#007f00" d="m750.812988,239.828003c-0.502136,1.562866 -1.723633,2.568161 -2.728333,2.245361c-1.004761,-0.3228 -1.41217,-1.85144 -0.910034,-3.414322c0.502136,-1.562866 1.723694,-2.568161 2.728394,-2.245361c1.0047,0.3228 1.412109,1.85144 0.909973,3.414322z" id="path3081"/>
  </g>
  <g fill="url(#pattern5504)" transform="matrix(0.75983 0.262758 -0.285701 0.698812 422.255 24.514)" id="g3083">
   <path fill="#007f00" d="m355.298096,177.190903c0,1.43428 -0.855469,2.597 -1.910767,2.597c-1.055298,0 -1.910736,-1.16272 -1.910736,-2.597c0,-1.43428 0.855438,-2.596985 1.910736,-2.596985c1.055298,0 1.910767,1.162704 1.910767,2.596985z" id="path3085"/>
   <path fill="#007f00" id="path3087" d="m351.79071,183.86853c0.389404,1.594711 -0.126007,3.090408 -1.151184,3.340729c-1.025177,0.25032 -2.171906,-0.839539 -2.561279,-2.434235c-0.389374,-1.594711 0.126007,-3.090408 1.151184,-3.340729c1.025177,-0.25032 2.171906,0.839539 2.561279,2.434235z"/>
   <path fill="#007f00" d="m359.410004,184.906281c-0.502136,1.562866 -1.723663,2.568161 -2.728394,2.245361c-1.0047,-0.3228 -1.412109,-1.85144 -0.909973,-3.414322c0.502136,-1.562866 1.723633,-2.568161 2.728363,-2.245361c1.0047,0.322815 1.412109,1.85144 0.910004,3.414322z" id="path3089"/>
  </g>
  <g fill="url(#pattern5504)" id="g3091" transform="matrix(0.811134 -0.029496 0.0320715 0.745995 328.689 301.3)">
   <path fill="#007f00" id="path3093" d="m516.93396,151.094971a1.91077,2.596991 0 1 1 -3.821533,0a1.91077,2.596991 0 1 1 3.821533,0z"/>
   <path fill="#007f00" d="m513.426575,157.772568a1.856236,2.88747 0 1 1 -3.712463,0.906494a1.856236,2.88747 0 1 1 3.712463,-0.906494z" id="path3095"/>
   <path fill="#007f00" id="path3097" d="m521.045837,158.810333a1.819183,2.829833 0 1 1 -3.638367,-1.168961a1.819183,2.829833 0 1 1 3.638367,1.168961z"/>
  </g>
  <g fill="url(#pattern5504)" id="g3099" transform="matrix(0.763038 -0.254775 0.277021 0.701761 347.241 448.655)">
   <path fill="#007f00" id="path3101" d="m641.528015,175.559357c0,1.43428 -0.855469,2.597 -1.910767,2.597c-1.055298,0 -1.910767,-1.16272 -1.910767,-2.597c0,-1.43428 0.855469,-2.597 1.910767,-2.597c1.055298,0 1.910767,1.16272 1.910767,2.597z"/>
   <path fill="#007f00" d="m638.02063,182.236969c0.389343,1.594711 -0.126038,3.090393 -1.151184,3.340714c-1.025208,0.250336 -2.171936,-0.839523 -2.561279,-2.434219c-0.389404,-1.594711 0.125977,-3.090408 1.151184,-3.340729c1.025146,-0.25032 2.171875,0.839539 2.561279,2.434235z" id="path3103"/>
   <path fill="#007f00" id="path3105" d="m645.639954,183.274719c-0.502136,1.562881 -1.723694,2.568161 -2.728394,2.245361c-1.0047,-0.3228 -1.412109,-1.85144 -0.909973,-3.414307c0.502075,-1.562881 1.723633,-2.568161 2.728333,-2.245361c1.0047,0.3228 1.412109,1.85144 0.910034,3.414307z"/>
  </g>
  <g fill="url(#pattern5504)" transform="matrix(0.811717 0.00838633 -0.00911861 0.746531 195.967 417.578)" id="g3107">
   <path fill="#007f00" d="m495.982483,150.79866c0,1.43428 -0.855438,2.597 -1.910736,2.597c-1.055328,0 -1.910797,-1.16272 -1.910797,-2.597c0,-1.43428 0.855469,-2.597 1.910797,-2.597c1.055298,0 1.910736,1.16272 1.910736,2.597z" id="path3109"/>
   <path fill="#007f00" id="path3111" d="m492.475098,157.476303c0.389374,1.594696 -0.126007,3.090393 -1.151215,3.340714c-1.025177,0.25032 -2.171875,-0.839539 -2.561249,-2.434235c-0.389404,-1.594711 0.126007,-3.090393 1.151184,-3.340714c1.025177,-0.25032 2.171875,0.839523 2.561279,2.434235z"/>
   <path fill="#007f00" d="m500.09436,158.514038c-0.502136,1.562866 -1.723633,2.568161 -2.728363,2.245361c-1.00473,-0.3228 -1.412109,-1.85144 -0.910004,-3.414322c0.502136,-1.562866 1.723663,-2.568161 2.728363,-2.245361c1.00473,0.3228 1.41214,1.85144 0.910004,3.414322z" id="path3113"/>
  </g>
  <g fill="url(#pattern5504)" id="g3115" transform="matrix(-0.799127 -0.131241 0.142701 -0.734952 1142.67 1431.73)">
   <path fill="#007f00" id="path3117" d="m573.205933,970.157471c0,1.434265 -0.855469,2.596985 -1.910767,2.596985c-1.055298,0 -1.910767,-1.16272 -1.910767,-2.596985c0,-1.434265 0.855469,-2.596985 1.910767,-2.596985c1.055298,0 1.910767,1.16272 1.910767,2.596985z"/>
   <path fill="#007f00" d="m569.698547,976.835083c0.389404,1.594666 -0.126038,3.090393 -1.151184,3.340698c-1.025208,0.250305 -2.171936,-0.839539 -2.561279,-2.434204c-0.389404,-1.594727 0.125977,-3.090393 1.151184,-3.340698c1.025208,-0.250305 2.171875,0.839539 2.561279,2.434204z" id="path3119"/>
   <path fill="#007f00" id="path3121" d="m577.31781,977.872803c-0.502136,1.562866 -1.723694,2.568176 -2.728394,2.245361c-1.0047,-0.322815 -1.412109,-1.85144 -0.909973,-3.414307c0.502136,-1.562866 1.723633,-2.568176 2.728333,-2.245361c1.004761,0.322815 1.412109,1.85144 0.910034,3.414307z"/>
  </g>
  <g fill="url(#pattern5504)" id="g3123" transform="matrix(-0.807959 0.072239 -0.0785468 -0.743075 801.576 1332.44)">
   <path fill="#007f00" id="path3125" d="m460.667725,974.649963c0,1.434265 -0.855469,2.596985 -1.910767,2.596985c-1.055298,0 -1.910767,-1.16272 -1.910767,-2.596985c0,-1.434326 0.855469,-2.597046 1.910767,-2.597046c1.055298,0 1.910767,1.16272 1.910767,2.597046z"/>
   <path fill="#007f00" d="m457.160339,981.327576c0.389404,1.594666 -0.126007,3.090332 -1.151184,3.340698c-1.025177,0.250305 -2.171906,-0.839539 -2.561279,-2.434265c-0.389374,-1.594666 0.126007,-3.090332 1.151215,-3.340698c1.025177,-0.250305 2.171875,0.839539 2.561249,2.434265z" id="path3127"/>
   <path fill="#007f00" id="path3129" d="m464.779602,982.365295c-0.502106,1.562866 -1.723633,2.568176 -2.728363,2.245361c-1.0047,-0.322815 -1.412109,-1.85144 -0.910004,-3.414307c0.502167,-1.562866 1.723694,-2.568176 2.728394,-2.245361c1.00473,0.322754 1.412109,1.85144 0.909973,3.414307z"/>
  </g>
  <g fill="url(#pattern5504)" id="g3131" transform="matrix(0.809041 -0.0611496 0.0664891 0.74407 -256.202 587.087)">
   <path fill="#007f00" id="path3133" d="m534.440491,152.160004c0,1.43428 -0.855469,2.597 -1.910767,2.597c-1.055298,0 -1.910767,-1.16272 -1.910767,-2.597c0,-1.43428 0.855469,-2.597 1.910767,-2.597c1.055298,0 1.910767,1.16272 1.910767,2.597z"/>
   <path fill="#007f00" d="m530.933105,158.837616c0.389404,1.594711 -0.125977,3.090393 -1.151184,3.340714c-1.025146,0.25032 -2.171875,-0.839523 -2.561279,-2.434235c-0.389343,-1.594696 0.126038,-3.090393 1.151245,-3.340714c1.025146,-0.25032 2.171875,0.839523 2.561218,2.434235z" id="path3135"/>
   <path fill="#007f00" id="path3137" d="m538.552368,159.875351c-0.502136,1.562881 -1.723633,2.568161 -2.728333,2.245361c-1.004761,-0.3228 -1.41217,-1.85144 -0.910034,-3.414307c0.502136,-1.562881 1.723694,-2.568161 2.728394,-2.245361c1.0047,0.3228 1.412109,1.85144 0.909973,3.414307z"/>
  </g>
  <g fill="url(#pattern5504)" id="g3139" transform="matrix(-0.742031 0.302742 0.329177 0.682442 573.241 395.981)">
   <path fill="#007f00" fill-rule="evenodd" id="path3141" d="m435.192902,255.795563c3.274231,-1.508972 6.519348,-3.265991 9.702759,-5.264343c7.67688,-12.559998 12.370667,-26.795227 13.623718,-41.247559c0,0 0,0 0,0c1.541016,-17.810059 -2.151978,-35.849304 -10.3255,-51.358887c0,0 0,0 0,0c-3.406677,-6.464294 -7.572815,-12.494812 -12.369385,-17.929077c4.305176,5.839233 7.88324,12.157227 10.650513,18.762329c3.127197,7.462524 5.196655,15.303467 6.206299,23.221619c1.819641,8.762024 2.341614,17.825562 1.469238,26.780029c-1.644897,16.932007 -8.280762,33.506775 -18.957642,47.035889c0,0 0,0 0,0z"/>
   <g fill="url(#pattern5504)" id="g3143">
    <path fill="#007f00" d="m462.479523,217.828888c0,0 17.40918,-18.470764 25.052246,-39.276855c6.369263,19.532288 -11.252258,36.092224 -25.052246,39.276855z" id="path3145"/>
    <path fill="#007f00" id="path3147" d="m460.503448,216.858307c0,0 13.592102,-13.279846 26.078491,-39.464966c-19.991455,1.53833 -28.603333,25.541504 -26.078491,39.464966z"/>
   </g>
   <g fill="url(#pattern5504)" transform="matrix(0.885611 -0.227989 0.230144 0.893982 -71.6548 154.768)" id="g3149">
    <path fill="#007f00" id="path3151" d="m555.500549,154.090851c0,0 17.409119,-18.470764 25.052185,-39.276855c6.369263,19.532288 -11.252197,36.092224 -25.052185,39.276855z"/>
    <path fill="#007f00" d="m553.524414,153.12027c0,0 13.592163,-13.279846 26.078491,-39.464966c-19.991455,1.53833 -28.603333,25.541504 -26.078491,39.464966z" id="path3153"/>
   </g>
   <g fill="url(#pattern5504)" id="g3155" transform="matrix(0.337716 -0.595287 0.555737 0.372105 61.1315 669.572)">
    <path fill="#007f00" d="m952.927063,97.686737c0,0 17.40918,-18.470764 25.052246,-39.276855c6.369263,19.532288 -11.252258,36.092224 -25.052246,39.276855z" id="path3157"/>
    <path fill="#007f00" id="path3159" d="m950.950989,96.716156c0,0 13.592102,-13.279846 26.078491,-39.464966c-19.991455,1.53833 -28.603333,25.541504 -26.078491,39.464966z"/>
   </g>
   <g fill="url(#pattern5504)" id="g3161" transform="matrix(-0.805265 0.444524 0.443882 0.809814 859.103 -210.147)">
    <path fill="#007f00" d="m592.308594,149.830933c0,0 17.40918,-18.470764 25.052246,-39.276855c6.369263,19.532288 -11.252258,36.092224 -25.052246,39.276855z" id="path3163"/>
    <path fill="#007f00" id="path3165" d="m590.33252,148.860352c0,0 13.592102,-13.279846 26.078491,-39.464966c-19.991455,1.53833 -28.603333,25.541504 -26.078491,39.464966z"/>
   </g>
   <g fill="url(#pattern5504)" transform="matrix(-1.24472 0 0 1 1397.08 12.5261)" id="g3167">
    <path fill="#007f00" id="path3169" d="m764.432983,217.828888c0,0 17.40918,-18.470764 25.052246,-39.276855c6.369324,19.532288 -11.252197,36.092224 -25.052246,39.276855z"/>
    <path fill="#007f00" d="m762.45697,216.858307c0,0 13.592102,-13.279846 26.07843,-39.464966c-19.991455,1.53833 -28.603271,25.541504 -26.07843,39.464966z" id="path3171"/>
   </g>
  </g>
  <g fill="url(#pattern5504)" id="g3173" transform="matrix(0.422868 0.539675 -0.600391 0.380104 719.922 432.881)">
   <path fill="#007f00" fill-rule="evenodd" id="path3175" d="m220.821442,364.315948c3.274231,-1.508972 6.519348,-3.265991 9.702759,-5.264343c7.67688,-12.559998 12.370667,-26.795227 13.623718,-41.247559c0,0 0,0 0,0c1.541016,-17.810059 -2.151978,-35.849304 -10.3255,-51.358887c0,0 0,0 0,0c-3.406677,-6.464294 -7.572815,-12.494812 -12.369385,-17.929077c4.305176,5.839233 7.88324,12.157227 10.650513,18.762329c3.127197,7.462524 5.196655,15.303467 6.206299,23.221619c1.819641,8.762024 2.341614,17.825562 1.469238,26.780029c-1.644897,16.932007 -8.280762,33.506775 -18.957642,47.035889c0,0 0,0 0,0z"/>
   <g fill="url(#pattern5504)" id="g3177">
    <path fill="#007f00" d="m248.108063,326.349274c0,0 17.40918,-18.470764 25.052246,-39.276855c6.369263,19.532288 -11.252258,36.092224 -25.052246,39.276855z" id="path3179"/>
    <path fill="#007f00" id="path3181" d="m246.131989,325.378693c0,0 13.592102,-13.279846 26.078491,-39.464966c-19.991455,1.53833 -28.603333,25.541504 -26.078491,39.464966z"/>
   </g>
   <g fill="url(#pattern5504)" transform="matrix(0.885611 -0.227989 0.230144 0.893982 -71.6548 154.768)" id="g3183">
    <path fill="#007f00" id="path3185" d="m298.90033,210.041046c0,0 17.40918,-18.470764 25.052246,-39.276855c6.369263,19.532288 -11.252258,36.092224 -25.052246,39.276855z"/>
    <path fill="#007f00" d="m296.924255,209.070465c0,0 13.592102,-13.279846 26.078491,-39.464966c-19.991455,1.53833 -28.603333,25.541504 -26.078491,39.464966z" id="path3187"/>
   </g>
   <g fill="url(#pattern5504)" id="g3189" transform="matrix(0.337716 -0.595287 0.555737 0.372105 61.1315 669.572)">
    <path fill="#007f00" d="m646.068359,-101.580811c0,0 17.40918,-18.470764 25.052246,-39.276855c6.369263,19.532288 -11.252258,36.092224 -25.052246,39.276855z" id="path3191"/>
    <path fill="#007f00" id="path3193" d="m644.092285,-102.551392c0,0 13.592041,-13.279846 26.078491,-39.464966c-19.991455,1.53833 -28.603333,25.541504 -26.078491,39.464966z"/>
   </g>
   <g fill="url(#pattern5504)" id="g3195" transform="matrix(-0.805265 0.444524 0.443882 0.809814 859.103 -210.147)">
    <path fill="#007f00" d="m853.390564,140.524109c0,0 17.40918,-18.470764 25.052246,-39.276855c6.369263,19.532288 -11.252258,36.092224 -25.052246,39.276855z" id="path3197"/>
    <path fill="#007f00" id="path3199" d="m851.41449,139.553528c0,0 13.592102,-13.279846 26.078491,-39.464966c-19.991455,1.53833 -28.603333,25.541504 -26.078491,39.464966z"/>
   </g>
   <g fill="url(#pattern5504)" transform="matrix(-1.24472 0 0 1 1397.08 12.5261)" id="g3201">
    <path fill="#007f00" id="path3203" d="m936.657593,326.349274c0,0 17.40918,-18.470764 25.052246,-39.276855c6.369263,19.532288 -11.252258,36.092224 -25.052246,39.276855z"/>
    <path fill="#007f00" d="m934.681519,325.378693c0,0 13.592102,-13.279846 26.078491,-39.464966c-19.991455,1.53833 -28.603333,25.541504 -26.078491,39.464966z" id="path3205"/>
   </g>
  </g>
  <g fill="url(#pattern5504)" id="g3228" transform="matrix(0.799876 0.13844 -0.127322 0.735641 443.096 100.584)">
   <path fill="#007f00" fill-rule="evenodd" id="path3230" d="m520.94043,256.747345c4.302673,-1.380737 8.593811,-3.099854 12.825928,-5.148804c13.879639,-14.725281 23.481628,-33.252991 27.354858,-52.837891c4.716003,-23.879272 0.874512,-49.111694 -10.407104,-70.182007c-3.440613,-6.426147 -7.546997,-12.473328 -12.222534,-18.013916c4.294189,5.845764 7.955078,12.118103 10.913147,18.671997c5.254272,11.638062 8.209167,24.193481 8.864807,36.766846c1.185425,10.570435 0.745544,21.348267 -1.412354,31.801331c-4.700562,22.819214 -17.592834,44.097595 -35.916748,58.942444c0,0 0,0 0,0z"/>
   <g fill="url(#pattern5504)" id="g3232">
    <path fill="#007f00" d="m565.153137,188.405914c0,0 17.40918,-18.470764 25.052246,-39.276855c6.369263,19.532288 -11.252258,36.092224 -25.052246,39.276855z" id="path3234"/>
    <path fill="#007f00" id="path3236" d="m563.177063,187.435333c0,0 13.592102,-13.279846 26.078491,-39.464966c-19.991455,1.53833 -28.603333,25.541504 -26.078491,39.464966z"/>
   </g>
   <g fill="url(#pattern5504)" transform="matrix(0.885611 -0.227989 0.230144 0.893982 -71.6548 154.768)" id="g3238">
    <path fill="#007f00" id="path3240" d="m672.251221,150.953064c0,0 17.40918,-18.470764 25.052246,-39.276855c6.369263,19.532288 -11.252258,36.092224 -25.052246,39.276855z"/>
    <path fill="#007f00" d="m670.275146,149.982483c0,0 13.592102,-13.279846 26.078491,-39.464966c-19.991455,1.53833 -28.603333,25.541504 -26.078491,39.464966z" id="path3242"/>
   </g>
   <g fill="url(#pattern5504)" id="g3244" transform="matrix(0.337716 -0.595287 0.555737 0.372105 61.1315 669.572)">
    <path fill="#007f00" d="m1072.441162,209.81134c0,0 17.40918,-18.470764 25.052246,-39.276855c6.369263,19.532288 -11.252197,36.092224 -25.052246,39.276855z" id="path3246"/>
    <path fill="#007f00" id="path3248" d="m1070.465088,208.840759c0,0 13.592163,-13.279846 26.078491,-39.464966c-19.991455,1.53833 -28.603394,25.541504 -26.078491,39.464966z"/>
   </g>
   <g fill="url(#pattern5504)" id="g3250" transform="matrix(-0.805265 0.444524 0.443882 0.809814 859.103 -210.147)">
    <path fill="#007f00" d="m479.048279,175.668884c0,0 17.40918,-18.470764 25.052246,-39.276855c6.369263,19.532288 -11.252258,36.092224 -25.052246,39.276855z" id="path3252"/>
    <path fill="#007f00" id="path3254" d="m477.072205,174.698303c0,0 13.592102,-13.279846 26.078491,-39.464966c-19.991455,1.53833 -28.603333,25.541504 -26.078491,39.464966z"/>
   </g>
   <g fill="url(#pattern5504)" transform="matrix(-1.24472 0 0 1 1397.08 12.5261)" id="g3256">
    <path fill="#007f00" id="path3258" d="m681.94574,188.405914c0,0 17.40918,-18.470764 25.052246,-39.276855c6.369263,19.532288 -11.252258,36.092224 -25.052246,39.276855z"/>
    <path fill="#007f00" d="m679.969666,187.435333c0,0 13.592102,-13.279846 26.078491,-39.464966c-19.991455,1.53833 -28.603333,25.541504 -26.078491,39.464966z" id="path3260"/>
   </g>
  </g>
 </g>
 </g>
</svg>
